<svg id="Layer_1" data-name="Layer 1" xmlns="http://www.w3.org/2000/svg" xmlns:xlink="http://www.w3.org/1999/xlink" viewBox="0 0 512 512"><defs><linearGradient id="linear-gradient" x1="256" y1="593.46" x2="256" y2="-81.46" gradientUnits="userSpaceOnUse"><stop offset="0" stop-color="#231f20"/><stop offset="1" stop-color="#58595b"/></linearGradient></defs><title>volume_down</title><path d="M407.55,23.77V488.15c0,21.35-11.67,30-25.92,19.23L217.3,383.43H61a36.78,36.78,0,0,1-36.8-36.6V165.09A36.75,36.75,0,0,1,61,128.56H217.32l164.31-124C395.88-6.12,407.55,2.55,407.55,23.77ZM487.85,256a48.18,48.18,0,0,1-48.36,48.07c-.59,0-1.08-.12-1.67-.15V272.09a16.7,16.7,0,0,0,0-32.25V208.07c.57-.05,1.08-.17,1.67-.17A48.2,48.2,0,0,1,487.85,256Z" fill-rule="evenodd" fill="url(#linear-gradient)"/></svg>